<?xml version="1.0" standalone="no"?>
<!DOCTYPE svg PUBLIC "-//W3C//DTD SVG 20010904//EN"
 "http://www.w3.org/TR/2001/REC-SVG-20010904/DTD/svg10.dtd">
<svg version="1.0" xmlns="http://www.w3.org/2000/svg"
 width="676.000000pt" height="523.000000pt" viewBox="0 0 676.000000 523.000000"
 preserveAspectRatio="xMidYMid meet">

<g transform="translate(0.000000,523.000000) scale(0.100000,-0.100000)"
fill="#000000" stroke="none">
<path d="M3670 4721 c-109 -35 -192 -87 -286 -177 -57 -56 -174 -195 -174
-207 0 -3 -13 -26 -30 -50 -91 -136 -231 -474 -293 -712 -30 -113 -57 -231
-57 -247 0 -29 -27 -38 -161 -53 -155 -16 -368 -48 -425 -64 l-40 -11 -239
238 c-325 322 -463 428 -685 526 -62 28 -163 54 -252 66 -69 10 -102 9 -160
-1 -192 -34 -285 -160 -334 -449 -22 -125 -25 -570 -6 -760 7 -63 16 -162 22
-220 5 -58 14 -134 20 -170 5 -36 19 -123 30 -195 45 -295 98 -504 156 -623
39 -78 61 -97 101 -87 24 6 25 8 20 63 -3 31 -15 89 -26 127 -26 88 -57 215
-70 280 -5 28 -14 75 -20 105 -73 383 -111 769 -111 1122 0 279 12 390 58 521
24 70 93 138 155 155 113 29 270 -1 447 -86 164 -79 270 -160 514 -393 104
-99 181 -168 229 -205 15 -12 27 -26 27 -31 0 -5 -24 -14 -52 -20 -55 -11
-220 -60 -298 -88 -65 -24 -120 -57 -120 -72 0 -24 49 -25 142 -3 284 67 579
123 718 135 36 4 90 10 120 15 99 17 385 30 650 31 218 0 262 3 275 15 28 28
16 68 -26 89 -23 12 -81 15 -304 15 -154 0 -275 4 -275 9 0 5 12 51 26 102 14
52 29 110 34 129 9 36 60 187 85 253 8 20 22 56 31 80 78 200 234 457 346 570
239 239 451 256 665 53 40 -39 73 -76 73 -83 0 -7 4 -13 8 -13 18 0 129 -185
276 -460 51 -94 359 -713 399 -800 52 -115 66 -146 72 -173 4 -15 11 -30 16
-33 5 -3 9 -13 9 -23 0 -10 10 -31 23 -47 22 -29 86 -145 132 -244 46 -98 52
-105 83 -108 23 -2 32 2 37 16 5 19 -1 36 -56 158 -11 23 -19 44 -19 48 0 3
-11 28 -24 56 -13 27 -29 73 -36 102 -27 110 -139 365 -298 674 -5 11 -19 37
-30 59 -68 136 -165 317 -236 445 -20 36 -42 76 -49 90 -6 14 -14 27 -17 30
-4 3 -21 30 -38 60 -52 88 -54 91 -119 176 -131 172 -250 262 -398 303 -59 16
-172 12 -235 -8z"/>
<path d="M4640 2974 c-201 -33 -490 -99 -805 -184 -30 -8 -202 -66 -284 -95
-87 -31 -141 -66 -141 -91 0 -28 44 -25 158 11 338 105 808 217 1032 246 41 5
89 14 105 18 17 5 42 12 57 15 30 7 51 36 42 59 -6 15 -47 38 -67 36 -7 -1
-50 -8 -97 -15z"/>
<path d="M4281 2602 c-13 -25 8 -56 35 -50 29 5 27 62 -3 66 -13 2 -26 -4 -32
-16z"/>
<path d="M4849 2467 c-77 -62 -171 -115 -364 -202 -55 -25 -239 -82 -340 -106
-87 -21 -124 -24 -285 -24 -165 1 -193 3 -260 24 -72 23 -141 57 -148 73 -6
14 -32 9 -38 -7 -7 -16 19 -62 45 -82 40 -32 125 -63 226 -83 91 -19 128 -22
222 -17 161 9 357 49 498 102 39 14 85 31 102 36 60 18 302 146 357 188 54 42
81 84 74 118 -6 31 -33 25 -89 -20z"/>
<path d="M2249 2446 c-2 -2 -49 -11 -104 -20 -55 -9 -131 -24 -170 -32 -38 -9
-99 -22 -135 -29 -360 -77 -603 -137 -737 -181 -95 -30 -113 -41 -113 -64 0
-37 80 -24 450 71 25 6 72 17 105 24 68 14 270 59 360 80 33 7 105 24 160 35
177 39 255 70 255 102 0 14 -8 18 -33 18 -19 0 -36 -2 -38 -4z"/>
<path d="M5205 2394 c-44 -15 -88 -33 -97 -42 -23 -20 -23 -44 0 -58 14 -9 40
-4 122 22 58 19 110 34 116 34 18 0 66 49 59 60 -11 18 -119 10 -200 -16z"/>
<path d="M5380 2310 c-48 -15 -195 -106 -198 -123 -6 -31 51 -19 144 29 109
57 128 72 113 91 -13 14 -22 15 -59 3z"/>
<path d="M2010 2120 c0 -15 7 -20 25 -20 18 0 25 5 25 20 0 15 -7 20 -25 20
-18 0 -25 -5 -25 -20z"/>
<path d="M5367 2083 c-14 -14 -6 -51 32 -143 36 -88 130 -281 148 -305 5 -6
19 -33 32 -60 62 -127 175 -301 311 -480 41 -55 93 -129 114 -165 22 -36 63
-102 93 -147 29 -46 53 -85 53 -87 0 -3 13 -24 29 -48 15 -24 39 -63 53 -88
13 -25 36 -65 52 -89 42 -65 124 -243 136 -293 14 -61 12 -119 -4 -150 l-15
-28 68 0 c63 0 69 2 75 22 12 46 5 132 -15 200 -24 77 -111 257 -174 356 -74
118 -233 357 -284 427 -28 39 -63 95 -77 125 -15 30 -68 115 -118 188 -50 73
-95 141 -101 150 -29 49 -110 179 -120 192 -7 8 -23 35 -36 60 -13 25 -29 52
-35 60 -6 8 -24 38 -39 65 -122 228 -150 266 -178 238z"/>
<path d="M2457 2011 c-60 -55 -196 -144 -294 -192 -83 -40 -257 -107 -303
-116 -14 -3 -45 -11 -70 -18 -62 -19 -273 -45 -362 -45 -40 0 -118 7 -173 15
-118 17 -185 19 -185 5 0 -19 63 -48 154 -72 120 -30 342 -32 486 -4 250 49
487 143 666 263 145 97 193 149 173 186 -16 27 -46 20 -92 -22z"/>
<path d="M3025 1450 c-83 -84 -151 -134 -197 -145 l-28 -7 0 100 c0 103 -4
112 -45 112 -8 0 -40 -32 -72 -72 -76 -95 -121 -139 -166 -162 -31 -16 -39
-17 -53 -5 -21 18 -13 97 16 143 25 42 27 79 3 74 -29 -5 -92 -98 -99 -146
-15 -100 16 -151 92 -152 l42 0 -84 -247 -83 -248 -133 2 c-143 3 -455 -14
-474 -25 -68 -40 -105 -174 -108 -389 l-1 -142 -32 -6 c-51 -9 -124 -45 -170
-82 -72 -58 -48 -74 34 -24 27 16 75 36 109 45 55 14 67 14 120 0 32 -8 79
-28 105 -44 35 -23 57 -30 97 -30 29 0 52 4 52 9 0 15 -77 77 -123 99 -49 23
-107 42 -130 42 -19 0 -22 11 -8 26 6 5 14 43 20 84 14 104 31 204 37 209 2 2
40 -1 84 -8 44 -7 231 -18 415 -26 396 -17 737 -42 801 -60 8 -2 5 -35 -8
-107 -10 -56 -23 -130 -28 -163 -6 -33 -12 -70 -15 -82 -5 -22 -2 -23 49 -23
54 0 55 0 60 33 3 17 12 75 20 127 40 251 53 448 31 468 -32 30 -115 42 -322
49 -118 3 -216 10 -219 14 -2 4 14 63 37 131 23 68 46 137 50 153 4 17 18 62
29 100 12 39 25 88 28 110 7 38 9 40 48 45 83 12 160 65 277 190 37 41 55 110
28 110 -3 0 -42 -36 -86 -80z m-305 -206 c-10 -17 -20 -21 -56 -20 -42 1 -44
2 -39 26 4 14 13 32 21 40 8 8 29 35 47 60 l32 45 3 -65 c2 -36 -2 -74 -8 -86z
m-72 -160 c1 -1 -3 -22 -9 -46 l-12 -45 -37 16 c-34 14 -36 18 -30 46 16 64
18 65 53 47 18 -10 33 -18 35 -18z m-110 -240 c24 -7 29 -32 12 -62 -5 -9 -16
-34 -24 -54 -13 -32 -20 -38 -45 -38 -37 0 -38 5 -9 93 22 68 26 71 66 61z
m295 -259 c142 -7 261 -16 265 -19 3 -4 0 -21 -6 -39 -7 -19 -12 -41 -12 -51
0 -18 -19 -18 -145 4 -119 21 -684 50 -971 50 -110 0 -203 2 -206 5 -3 3 0 22
6 41 l11 37 400 -7 c220 -4 516 -13 658 -21z"/>
<path d="M684 1376 c-24 -61 47 -81 231 -65 72 6 133 13 138 16 11 7 8 38 -5
51 -8 8 -64 12 -185 12 -142 0 -175 -3 -179 -14z"/>
<path d="M4892 1313 c-75 -37 -141 -151 -142 -244 0 -49 34 -174 50 -184 24
-15 8 -33 -33 -39 -26 -4 -58 -19 -80 -37 -32 -26 -37 -36 -37 -72 1 -23 7
-52 14 -65 11 -21 9 -27 -21 -57 -31 -31 -33 -38 -33 -99 0 -52 5 -73 21 -95
19 -26 20 -33 9 -66 -18 -55 -8 -121 25 -155 60 -63 242 -96 420 -75 61 7 117
10 125 7 8 -3 52 -34 96 -69 l82 -63 79 1 c64 0 75 2 59 12 -11 7 -59 39 -108
72 -49 33 -115 75 -146 93 -64 37 -63 36 -300 12 -100 -11 -127 -11 -150 0
-67 32 -108 54 -114 64 -16 22 -7 73 17 106 14 19 25 37 25 41 0 4 -16 24 -35
45 -25 26 -35 46 -35 69 0 40 19 57 72 64 50 7 67 30 49 64 -7 14 -24 30 -37
36 -30 13 -42 57 -22 77 8 8 41 19 74 24 32 4 67 11 77 15 25 10 21 44 -6 51
-22 5 -25 14 -37 107 -21 164 -15 201 45 261 41 42 73 46 101 14 44 -52 62
-111 84 -285 11 -88 33 -125 128 -216 55 -54 75 -82 93 -128 21 -57 48 -89 76
-89 6 0 31 -13 55 -28 91 -61 287 -153 569 -269 51 -21 74 -14 74 20 0 37 7
33 -250 142 -61 26 -132 57 -160 70 -27 13 -72 33 -100 45 -155 68 -166 74
-172 100 -20 83 -77 159 -162 215 -102 67 -102 68 -107 187 -6 135 -36 246
-77 288 -51 53 -97 62 -155 33z"/>
<path d="M1000 1276 c-3 -2 -45 -11 -94 -20 -127 -22 -166 -53 -105 -83 21
-10 42 -9 120 8 52 12 118 26 147 32 53 12 66 29 35 45 -22 12 -97 25 -103 18z"/>
<path d="M904 952 c-54 -36 -114 -448 -114 -779 l0 -173 63 0 62 0 0 318 c1
248 5 349 19 464 15 119 16 151 6 163 -14 17 -20 18 -36 7z"/>
<path d="M2163 93 c-25 -5 -73 -57 -73 -79 0 -11 24 -14 130 -14 l131 0 -16
30 c-29 57 -90 79 -172 63z"/>
<path d="M2578 38 c-27 -11 -48 -24 -48 -29 0 -5 66 -9 146 -9 125 0 145 2
135 14 -40 48 -153 60 -233 24z"/>
</g>
</svg>
