<svg xmlns="http://www.w3.org/2000/svg" xmlns:xlink="http://www.w3.org/1999/xlink" viewBox="0 0 341.43406 388.066">
  <defs>
    <style>
      .cls-1 {
        fill: url(#New_Gradient_Swatch_1);
      }

      .cls-2 {
        fill: #fff;
      }

      .cls-3 {
        fill: url(#New_Gradient_Swatch_1-2);
      }
    </style>
    <linearGradient id="New_Gradient_Swatch_1" data-name="New Gradient Swatch 1" x1="256.07554" y1="46.18772" x2="85.35851" y2="341.87829" gradientUnits="userSpaceOnUse">
      <stop offset="0" stop-color="#1272d9"/>
      <stop offset="0.51685" stop-color="#348ae7"/>
      <stop offset="1" stop-color="#53a0f4"/>
    </linearGradient>
    <linearGradient id="New_Gradient_Swatch_1-2" x1="191.79463" y1="162.53814" x2="151.04226" y2="233.12332" xlink:href="#New_Gradient_Swatch_1"/>
  </defs>
  <title>Asset 2Logo</title>
  <g id="Layer_2" data-name="Layer 2">
    <g id="Layer_1-2" data-name="Layer 1">
      <g>
        <path class="cls-1" d="M341.43406,281.04945l-.00006-174.033a20,20,0,0,0-10-17.32051L180.717,2.67949a20,20,0,0,0-20,0L10,89.69605A20,20,0,0,0,0,107.01656l.00006,174.033a20,20,0,0,0,10,17.3205l150.717,87.01645a20,20,0,0,0,20,0L331.43406,298.37A20,20,0,0,0,341.43406,281.04945Z"/>
        <g>
          <path class="cls-2" d="M170.717,114.533a79.5,79.5,0,1,1-79.5,79.5,79.59006,79.59006,0,0,1,79.5-79.5m0-16a95.5,95.5,0,1,0,95.5,95.5,95.5,95.5,0,0,0-95.5-95.5Z"/>
          <circle class="cls-2" cx="170.71703" cy="194.033" r="71.5"/>
          <g>
            <path class="cls-3" d="M216.20541,236.93857l-6.17012-62.72948a2.3609,2.3609,0,0,0-4.019-1.4383l-14.466,14.466a2.3609,2.3609,0,0,1-3.33882,0l-42.01014-42.01013a2.3609,2.3609,0,0,0-3.33882,0l-20.954,20.954a2.3609,2.3609,0,0,0,0,3.33882l43.08142,42.06a2.3609,2.3609,0,0,1,.0498,3.28749l-14.6755,14.50741a2.36091,2.36091,0,0,0,1.48429,3.96727l61.77239,6.17724A2.36091,2.36091,0,0,0,216.20541,236.93857Z"/>
            <path class="cls-2" d="M208.87131,232.09913l-4.90039-45.68192a.88857.88857,0,0,0-1.51262-.54134L190.57618,197.758a.88858.88858,0,0,1-1.25664,0L146.6001,154.01765a.88858.88858,0,0,0-1.25664,0l-14.60424,14.60424a.88857.88857,0,0,0,0,1.25663l43.7591,43.66049a.88858.88858,0,0,1,.01874,1.23732L163.21651,226.674a.88858.88858,0,0,0,.55864,1.49317l44.12344,4.90307A.88857.88857,0,0,0,208.87131,232.09913Z"/>
          </g>
        </g>
      </g>
    </g>
  </g>
</svg>
